#!OML:ASF E:\Style4\Style4.ASF
:FULLY-SPECIFIED
:DEGREES
3602
root -1.10173 16.8212 -1.1585 1.04292 21.464 5.8692
lowerback 15.4407 5.48598 2.44634
upperback 9.27786 7.64385 -1.29841
thorax 1.77233 4.05121 -3.72113
lowerneck 4.72374 -7.28983 -5.31645
upperneck -3.03429 -9.78268 7.80663
head -1.09545 -4.99667 3.6399
rclavicle 1.28017e-013 -6.20208e-014
rhumerus 26.6214 -9.5244 -56.9042
rradius 106.204
rwrist 1.68234
rhand 3.62563 8.65914
rfingers 7.12502
rthumb 29.0582 -19.0946
lclavicle 1.28017e-013 -6.20208e-014
lhumerus 14.6028 14.3611 44.3275
lradius 119.088
lwrist 7.82029
lhand 0.371301 27.5778
lfingers 7.12502
lthumb 25.946 55.827
rfemur -24.331 -17.8429 16.1148
rtibia 55.8855
rfoot -29.4672 -21.5591
rtoes -8.76797
lfemur -27.7088 -8.96214 -20.6555
ltibia 47.6425
lfoot -18.366 -0.345061
ltoes -16.9583
3603
root -1.10062 16.8235 -1.15681 1.04123 21.3767 5.83592
lowerback 15.4364 5.45652 2.44409
upperback 9.24924 7.60346 -1.29826
thorax 1.73994 4.02907 -3.71665
lowerneck 4.77691 -7.25163 -5.37166
upperneck -3.02627 -9.7378 7.7928
head -1.10366 -4.97414 3.64788
rclavicle -6.36111e-015 2.38542e-015
rhumerus 26.6432 -9.45811 -56.9243
rradius 106.192
rwrist 1.66015
rhand 3.58081 8.76686
rfingers 7.12502
rthumb 29.0154 -18.9942
lclavicle -6.36111e-015 2.38542e-015
lhumerus 14.5278 14.3987 44.2564
lradius 119.058
lwrist 7.81457
lhand 0.341869 27.5107
lfingers 7.12502
lthumb 25.9178 55.764
rfemur -24.3275 -17.7836 16.1497
rtibia 55.8376
rfoot -29.5017 -21.4187
rtoes -8.40304
lfemur -27.6805 -8.91868 -20.6201
ltibia 47.5986
lfoot -18.3972 -0.280301
ltoes -17.1846
3604
root -1.09755 16.8265 -1.15478 1.08388 21.2928 5.86407
lowerback 15.4089 5.45453 2.41529
upperback 9.2117 7.59565 -1.32778
thorax 1.71364 4.02315 -3.73035
lowerneck 4.81558 -7.23419 -5.36356
upperneck -2.98842 -9.71715 7.77736
head -1.10097 -4.96393 3.64195
rclavicle -4.05521e-014 -1.27222e-014
rhumerus 26.6192 -9.47125 -56.9189
rradius 106.261
rwrist 1.67594
rhand 3.61185 8.67071
rfingers 7.12502
rthumb 29.0451 -19.0853
lclavicle -4.05521e-014 -1.27222e-014
lhumerus 14.5176 14.3114 44.2072
lradius 119.068
lwrist 7.90013
lhand 0.140004 27.5083
lfingers 7.12502
lthumb 25.7245 55.7897
rfemur -24.3465 -17.7612 16.1183
rtibia 55.7907
rfoot -29.4382 -21.39
rtoes -8.35663
lfemur -27.6697 -8.88273 -20.6506
ltibia 47.5475
lfoot -18.3316 -0.166856
ltoes -17.9777
3605
root -1.09437 16.829 -1.15398 1.14491 21.1867 5.95899
lowerback 15.4091 5.45887 2.32226
upperback 9.16802 7.58814 -1.37321
thorax 1.65989 4.01457 -3.72925
lowerneck 4.84488 -7.21265 -5.34065
upperneck -2.94565 -9.69067 7.73755
head -1.09736 -4.95027 3.62437
rclavicle -4.92986e-014 1.51076e-014
rhumerus 26.5966 -9.44547 -56.8982
rradius 106.285
rwrist 1.78567
rhand 3.56757 8.66566
rfingers 7.12502
rthumb 29.0028 -19.0976
lclavicle -4.92986e-014 1.51076e-014
lhumerus 14.4886 14.3106 44.1595
lradius 119.101
lwrist 7.96255
lhand 0.0795038 27.5724
lfingers 7.12502
lthumb 25.6665 55.8622
rfemur -24.3728 -17.721 16.0104
rtibia 55.7507
rfoot -29.3789 -21.3573
rtoes -8.20747
lfemur -27.643 -8.84391 -20.7555
ltibia 47.4921
lfoot -18.2903 -0.0465061
ltoes -18.6013
3606
root -1.0921 16.8325 -1.15386 1.13929 21.1307 5.94988
lowerback 15.4413 5.44239 2.3568
upperback 9.13764 7.57024 -1.40758
thorax 1.61878 4.00663 -3.78737
lowerneck 4.89295 -7.21242 -5.24963
upperneck -2.97047 -9.68675 7.67768
head -1.1216 -4.9489 3.59128
rclavicle 1.22451e-013 -2.3059e-014
rhumerus 26.5447 -9.46398 -56.8785
rradius 106.321
rwrist 1.85026
rhand 3.53669 8.62662
rfingers 7.12502
rthumb 28.9733 -19.1417
lclavicle 1.22451e-013 -2.3059e-014
lhumerus 14.5311 14.3136 44.1386
lradius 119.064
lwrist 7.98496
lhand 0.0242328 27.5566
lfingers 7.12502
lthumb 25.6136 55.854
rfemur -24.3467 -17.6928 16.0077
rtibia 55.698
rfoot -29.3453 -21.335
rtoes -8.25966
lfemur -27.5982 -8.80328 -20.7537
ltibia 47.4395
lfoot -18.3277 0.0769532
ltoes -19.3557
3607
root -1.08941 16.836 -1.15364 1.10901 21.0698 5.91105
lowerback 15.469 5.42499 2.40842
upperback 9.13539 7.55375 -1.41085
thorax 1.60808 4.00028 -3.82015
lowerneck 4.92674 -7.19708 -5.21867
upperneck -3.03026 -9.66427 7.63836
head -1.15207 -4.93805 3.5765
rclavicle -1.95604e-013 6.20208e-014
rhumerus 26.5704 -9.49901 -56.8712
rradius 106.37
rwrist 1.8561
rhand 3.60198 8.47417
rfingers 7.12502
rthumb 29.0356 -19.2835
lclavicle -1.95604e-013 6.20208e-014
lhumerus 14.5583 14.2923 44.1425
lradius 119.025
lwrist 7.98731
lhand -0.11398 27.5398
lfingers 7.12502
lthumb 25.4812 55.8562
rfemur -24.3031 -17.6754 16.0322
rtibia 55.6404
rfoot -29.2598 -21.3513
rtoes -8.62018
lfemur -27.5437 -8.77153 -20.7256
ltibia 47.4021
lfoot -18.3349 0.129137
ltoes -19.2977
3608
root -1.0873 16.8392 -1.15322 1.08743 20.9705 5.87435
lowerback 15.4582 5.42094 2.40817
upperback 9.15043 7.54791 -1.39241
thorax 1.62659 3.99711 -3.79791
lowerneck 4.84861 -7.18097 -5.22211
upperneck -2.97312 -9.64476 7.57456
head -1.124 -4.92537 3.54904
rclavicle -1.39149e-014 3.49861e-014
rhumerus 26.6356 -9.50749 -56.8507
rradius 106.378
rwrist 1.89771
rhand 3.4019 8.49486
rfingers 7.12502
rthumb 28.8445 -19.2955
lclavicle -1.39149e-014 3.49861e-014
lhumerus 14.6113 14.3482 44.1988
lradius 119.032
lwrist 7.88876
lhand -0.105852 27.5621
lfingers 7.12502
lthumb 25.489 55.8774
rfemur -24.2737 -17.6172 16.0636
rtibia 55.5768
rfoot -29.1867 -21.3318
rtoes -8.53206
lfemur -27.5034 -8.72803 -20.6953
ltibia 47.3823
lfoot -18.2844 0.015802
ltoes -18.1555
3609
root -1.08506 16.8399 -1.15394 1.09877 20.8543 5.83728
lowerback 15.4265 5.42526 2.4181
upperback 9.13921 7.55348 -1.39087
thorax 1.63264 3.99969 -3.79962
lowerneck 4.82155 -7.1511 -5.19924
upperneck -2.91812 -9.6058 7.53237
head -1.10732 -4.90449 3.52711
rclavicle 6.52014e-014 -2.62396e-014
rhumerus 26.651 -9.55334 -56.7994
rradius 106.389
rwrist 1.91441
rhand 3.33023 8.63852
rfingers 7.12502
rthumb 28.7761 -19.1635
lclavicle 6.52014e-014 -2.62396e-014
lhumerus 14.6941 14.3958 44.2407
lradius 118.99
lwrist 7.79025
lhand -0.0414714 27.2828
lfingers 7.12502
lthumb 25.5506 55.5892
rfemur -24.2995 -17.5399 16.1135
rtibia 55.5268
rfoot -29.1141 -21.3567
rtoes -8.78659
lfemur -27.5114 -8.65642 -20.6583
ltibia 47.3778
lfoot -18.3073 -0.0189406
ltoes -17.5109
3610
root -1.08293 16.8417 -1.15438 1.10007 20.7602 5.76419
lowerback 15.4045 5.42353 2.47994
upperback 9.11294 7.55755 -1.38739
thorax 1.62416 4.00303 -3.82952
lowerneck 4.82158 -7.14419 -5.11134
upperneck -2.88326 -9.59498 7.43739
head -1.10562 -4.89777 3.47798
rclavicle 6.75868e-015 0
rhumerus 26.636 -9.61252 -56.7656
rradius 106.427
rwrist 1.84951
rhand 3.42799 8.55355
rfingers 7.12502
rthumb 28.8695 -19.2326
lclavicle 6.75868e-015 0
lhumerus 14.7755 14.3794 44.2685
lradius 118.925
lwrist 7.88591
lhand -0.02868 26.9183
lfingers 7.12502
lthumb 25.5629 55.223
rfemur -24.3276 -17.4542 16.2005
rtibia 55.4849
rfoot -29.0851 -21.3498
rtoes -8.80655
lfemur -27.5248 -8.59227 -20.5821
ltibia 47.3726
lfoot -18.3606 0.1206
ltoes -18.5919
3611
root -1.08119 16.8424 -1.15531 1.10117 20.6622 5.79159
lowerback 15.4267 5.41406 2.40908
upperback 9.0938 7.53532 -1.39685
thorax 1.58176 3.9876 -3.80207
lowerneck 4.78572 -7.11499 -5.06675
upperneck -2.80089 -9.5568 7.37566
head -1.08039 -4.87679 3.44416
rclavicle -7.11649e-014 1.51076e-014
rhumerus 26.6473 -9.625 -56.7546
rradius 106.459
rwrist 1.8135
rhand 3.41479 8.49102
rfingers 7.12502
rthumb 28.8568 -19.2973
lclavicle -7.11649e-014 1.51076e-014
lhumerus 14.7689 14.4008 44.2495
lradius 118.933
lwrist 8.01923
lhand -0.0933941 26.9015
lfingers 7.12502
lthumb 25.5009 55.215
rfemur -24.3338 -17.3892 16.1655
rtibia 55.465
rfoot -29.0599 -21.3911
rtoes -9.02071
lfemur -27.4967 -8.53792 -20.614
ltibia 47.3583
lfoot -18.3523 0.120159
ltoes -18.8294
